# xmcd CD database file
#
# Track frame offsets:
#	150
#	4570
#	38810
#	46222
#	74342
#	79360
#	140000
#	145500
#	188240
#	194262
#	205615
#	213012
#	225865
#
# Disc length: 3176 seconds
#
# Revision: 0
# Processed by: cddbd v1.5.1PL2 Copyright (c) Steve Scherf et al.
# Submitted via: CDex 1.51
#
DISCID=a70c660d
DTITLE=Various Artist - CDドラマコレクションズ Neo Angelique 〜Silent Doll〜
DYEAR=2006
DGENRE=Game
TTITLE0=Prologue
TTITLE1=依頼発生
TTITLE2=Interlude1/the 1st Night 〜case J.D〜
TTITLE3=謎の少年
TTITLE4=Interlude2/the 2nd Night 〜case HYUGA〜
TTITLE5=イリュージョン
TTITLE6=Interlude3/the 3rd Night 〜case RAYNE〜
TTITLE7=対 峙
TTITLE8=Interlude4/the Last Night 〜case NYX〜
TTITLE9=陽だまりに抱かれて
TTITLE10=Epilogue
TTITLE11=Crazy Beat(short ver.) 歌/レイン(高橋広樹)
TTITLE12=眠れる森の果て(short ver.) 歌/ニクス(大川　透)
EXTD=YEAR: 2006
EXTT0=
EXTT1=
EXTT2=
EXTT3=
EXTT4=
EXTT5=
EXTT6=
EXTT7=
EXTT8=
EXTT9=
EXTT10=
EXTT11=
EXTT12=
PLAYORDER=
